<?xml version="1.0" encoding="UTF-8" standalone="no"?>
<svg width="66px" height="41px" viewBox="0 0 66 41" version="1.1" xmlns="http://www.w3.org/2000/svg" xmlns:xlink="http://www.w3.org/1999/xlink">
    <!-- Generator: Sketch 3.6.1 (26313) - http://www.bohemiancoding.com/sketch -->
    <title>Logo Copy</title>
    <desc>Created with Sketch.</desc>
    <defs></defs>
    <g id="Page-1" stroke="none" stroke-width="1" fill="none" fill-rule="evenodd">
        <g id="1024" transform="translate(-585.000000, -86.000000)">
            <g id="Logo-Copy" transform="translate(587.000000, 88.000000)">
                <path d="M37.358616,0.893990296 C39.1589863,0.313585181 41.0797365,0 43.0739559,0 C53.3229676,0 61.6314332,8.28273213 61.6314332,18.5 C61.6314332,28.7172679 53.3229676,37 43.0739559,37 C41.0435511,37 39.089306,36.6749315 37.2607313,36.0741518 C31.9732385,34.604839 7.87062121,27.9061238 7.08580112,27.6703802 C3.12035999,26.479244 0.232157543,22.8102666 0.232157543,18.4688027 C0.232157543,14.026281 3.25638442,10.2879175 7.36444443,9.18809619 C8.05885472,9.00218672 31.2813622,2.57584917 37.358616,0.893990296 Z" id="Chain" stroke="#FFFFFF" stroke-width="2"></path>
                <ellipse id="Oval-3" fill="#FFFFFF" cx="8.15145436" cy="18.4320066" rx="6.17251755" ry="6.15339967"></ellipse>
                <ellipse id="Oval-4" fill="#FFFFFF" cx="42.5779289" cy="18.0522388" rx="16.1021112" ry="16.0522388"></ellipse>
            </g>
        </g>
    </g>
</svg>
